<svg t="1600157930094" class="icon" viewBox="0 0 1024 1024" version="1.1" xmlns="http://www.w3.org/2000/svg" p-id="2006" width="200" height="200"><path d="M896 928h-192a21.333333 21.333333 0 0 1-21.333333-21.333333v-42.666667a64 64 0 0 1 64-64h85.333333v42.666667h-85.333333a21.333333 21.333333 0 0 0-21.333334 21.333333v21.333333h170.666667zM597.333333 800h-42.666666V408.810667l-99.136 113.408A64.490667 64.490667 0 0 1 407.253333 544H234.666667a65.450667 65.450667 0 0 1-50.112-21.717333L85.333333 408.810667V800H42.666667v-448a21.333333 21.333333 0 0 1 37.397333-14.037333l136.533333 156.16a21.653333 21.653333 0 0 0 16.149334 7.210666h174.506666a21.738667 21.738667 0 0 0 16.234667-7.296l136.533333-156.074666A21.333333 21.333333 0 0 1 597.333333 352z" p-id="2007" fill="#bfbfbf"></path><path d="M341.333333 864c-35.904 0-64-37.482667-64-85.333333h42.666667c0 26.048 12.629333 42.666667 21.333333 42.666666a21.098667 21.098667 0 0 0 21.333334-21.333333h42.666666a64 64 0 0 1-64 64z" p-id="2008" fill="#bfbfbf"></path><path d="M256 864a64 64 0 0 1-64-64h42.666667a21.098667 21.098667 0 0 0 21.333333 21.333333c8.704 0 21.333333-16.618667 21.333333-42.666666h42.666667c0 47.850667-28.096 85.333333-64 85.333333zM533.333333 586.666667h-42.666666c0-71.765333 37.482667-128 85.333333-128v42.666666c-20.138667 0-42.666667 36.501333-42.666667 85.333334zM149.333333 586.666667H106.666667c0-48.832-22.528-85.333333-42.666667-85.333334v-42.666666c47.850667 0 85.333333 56.234667 85.333333 128z" p-id="2009" fill="#bfbfbf"></path><path d="M896 928v-42.666667c47.850667 0 85.333333-159.317333 85.333333-362.666666a279.317333 279.317333 0 0 0-7.530666-64.597334 21.205333 21.205333 0 0 1-0.426667-7.424A1222.250667 1222.250667 0 0 0 981.333333 309.333333a629.952 629.952 0 0 0-41.045333-205.184C925.482667 74.666667 915.008 74.666667 896 74.666667a8.405333 8.405333 0 0 0-7.232 3.584c-2.624 4.266667-2.688 14.208 4.992 29.546666A531.008 531.008 0 0 1 938.666667 308.202667a21.333333 21.333333 0 0 1-37.12 14.421333A380.885333 380.885333 0 0 0 618.666667 202.666667c-199.978667 0-362.666667 143.552-362.666667 320h-42.666667c0-199.978667 181.824-362.666667 405.333334-362.666667a430.933333 430.933333 0 0 1 273.365333 94.912 539.328 539.328 0 0 0-37.098667-129.493333 68.970667 68.970667 0 0 1-2.474666-69.610667A50.666667 50.666667 0 0 1 896 32c29.44 0 57.941333 4.266667 83.2 54.464A673.365333 673.365333 0 0 1 1024 309.333333a1268.224 1268.224 0 0 1-7.808 142.592A322.517333 322.517333 0 0 1 1024 522.666667c0 95.082667-9.237333 405.333333-128 405.333333zM618.666667 864h85.333333v42.666667h-85.333333z" p-id="2010" fill="#bfbfbf"></path><path d="M746.666667 821.333333h-42.666667c0-131.584 65.6-234.666667 149.333333-234.666666v42.666666c-57.813333 0-106.666667 87.914667-106.666666 192zM618.666667 992h-200.32a64.298667 64.298667 0 0 1-64.426667-64 62.186667 62.186667 0 0 1 8.981333-32.234667c36.266667-59.584 112.704-102.101333 204.629334-113.962666 3.136-0.32 5.845333-0.576 8.256-0.576A64.64 64.64 0 0 1 640 845.44v125.226667a21.333333 21.333333 0 0 1-21.333333 21.333333z m-43.072-168.106667c-0.810667 0-1.92 0.170667-3.029334 0.298667-77.589333 10.005333-144.085333 45.866667-173.098666 93.568a19.925333 19.925333 0 0 0-2.88 10.24 21.610667 21.610667 0 0 0 21.76 21.333333H597.333333v-103.893333a21.802667 21.802667 0 0 0-21.738666-21.546667zM221.653333 992H21.333333a21.333333 21.333333 0 0 1-21.333333-21.333333v-125.226667a64.597333 64.597333 0 0 1 64-64.213333c1.514667 0.106667 5.333333 0.256 8.042667 0.554666 92.330667 11.882667 168.789333 54.4 204.928 113.792a62.464 62.464 0 0 1 9.088 32.426667 64.298667 64.298667 0 0 1-64.405334 64zM42.666667 949.333333h178.986666a21.610667 21.610667 0 0 0 21.76-21.333333 20.394667 20.394667 0 0 0-2.965333-10.432C211.52 870.058667 145.066667 834.133333 67.029333 824.149333a23.68 23.68 0 0 0-2.816-0.256A21.76 21.76 0 0 0 42.666667 845.44z" p-id="2011" fill="#bfbfbf"></path><path d="M256 906.666667h128v42.666666h-128zM405.333333 778.666667a64 64 0 1 1 64-64 64 64 0 0 1-64 64z m0-85.333334a21.333333 21.333333 0 1 0 21.333334 21.333334 21.333333 21.333333 0 0 0-21.333334-21.333334zM192 778.666667a64 64 0 1 1 64-64 64 64 0 0 1-64 64z m0-85.333334a21.333333 21.333333 0 1 0 21.333333 21.333334 21.333333 21.333333 0 0 0-21.333333-21.333334zM277.333333 522.666667h42.666667v106.666666h-42.666667zM341.333333 522.666667h42.666667v85.333333h-42.666667zM213.333333 522.666667h42.666667v85.333333h-42.666667z" p-id="2012" fill="#bfbfbf"></path></svg>