<svg t="1600162920752" class="icon" viewBox="0 0 1024 1024" version="1.1" xmlns="http://www.w3.org/2000/svg" p-id="1136" width="200" height="200"><path d="M703.978762 469.394687h-42.661947v-42.661948h42.661947a21.330974 21.330974 0 0 0 21.330974-21.330973V106.768135a63.992921 63.992921 0 0 0-127.985842 0 21.330974 21.330974 0 0 1-21.330973 21.330974h-127.985842a21.330974 21.330974 0 0 1-21.330973-21.330974 63.992921 63.992921 0 0 0-127.985842 0v298.633631a21.330974 21.330974 0 0 0 21.330974 21.330973v42.661948a63.992921 63.992921 0 0 1-63.992921-63.992921V106.768135a106.654868 106.654868 0 0 1 211.176638-21.330973h89.59009A106.654868 106.654868 0 0 1 767.971683 106.768135v298.633631a63.992921 63.992921 0 0 1-63.992921 63.992921z" p-id="1137" fill="#1890ff"></path><path d="M405.345132 1024h-42.661947a63.992921 63.992921 0 0 1-63.992921-63.992921v-23.592057C239.838108 923.744424 192.035396 860.476756 192.035396 789.35929a21.650938 21.650938 0 0 1 0.618598-5.098102l5.994004-24.31731 79.351222-317.063592 41.382088 10.366854L234.697343 791.833683C235.955871 845.737054 276.826016 896.014158 320.021238 896.014158a21.330974 21.330974 0 0 1 21.330973 21.330974v42.661947a21.330974 21.330974 0 0 0 21.330974 21.330974h42.661947a21.330974 21.330974 0 0 0 21.330974-21.330974v-42.661947h42.661947v42.661947a63.992921 63.992921 0 0 1-63.992921 63.992921z" p-id="1138" fill="#1890ff"></path><path d="M767.971683 682.704422h-42.661947v-149.316815a63.992921 63.992921 0 0 0-63.992921-63.99292H320.021238v-42.661948h341.295577a106.782854 106.782854 0 0 1 106.654868 106.654868zM703.978762 1024h-42.661947a63.992921 63.992921 0 0 1-63.992921-63.992921v-21.330973H320.021238v-42.661948h298.63363a21.330974 21.330974 0 0 1 21.330974 21.330974v42.661947a21.330974 21.330974 0 0 0 21.330973 21.330974h42.661947a21.330974 21.330974 0 0 0 21.330974-21.330974v-191.978762h42.661947v191.978762a63.992921 63.992921 0 0 1-63.992921 63.992921z" p-id="1139" fill="#1890ff"></path><path d="M789.302657 789.35929h-42.661947a21.330974 21.330974 0 0 1-21.330974-21.330973v-85.323895h42.661947v63.992921h21.330974a21.330974 21.330974 0 0 0 21.330973-21.330973v-42.661948c0-87.712963-50.234443-213.309736-85.323894-213.309735h-21.330974v-42.661948h21.330974c83.190797 0 127.985842 181.697233 127.985842 255.971683v42.661948a63.992921 63.992921 0 0 1-63.992921 63.99292zM234.697343 789.35929a62.585077 62.585077 0 0 1-23.464071-4.564828A63.395654 63.395654 0 0 1 170.704422 725.36637v-42.661948c0-74.27445 44.795045-255.971683 127.985842-255.971683h21.330974v42.661948h-21.330974c-35.089452 0-85.323894 125.596773-85.323894 213.309735v42.661948a21.160326 21.160326 0 0 0 13.673154 19.795143A20.349749 20.349749 0 0 0 234.697343 746.697343zM575.992921 85.437162h170.647789v42.661947h-170.647789zM277.35929 85.437162h170.647789v42.661947h-170.647789zM635.911626 298.746898a97.951831 97.951831 0 0 1-63.694288-26.301091A59.726726 59.726726 0 0 1 614.388673 170.761056a58.788163 58.788163 0 0 1 42.150004 17.726039c22.077558 22.077558 38.843703 72.397324 13.545168 97.674528a46.928142 46.928142 0 0 1-34.172219 12.585275zM614.388673 213.423003a16.851469 16.851469 0 0 0-12.009338 28.818146 53.327434 53.327434 0 0 0 37.435859 13.630492 53.199448 53.199448 0 0 0-13.523837-37.329204 16.702152 16.702152 0 0 0-11.902684-5.119434zM388.109705 298.746898a46.928142 46.928142 0 0 1-34.129557-12.649268c-25.298535-25.277204-8.532389-75.59697 13.651823-97.781183A58.702839 58.702839 0 0 1 409.611327 170.761056a59.513416 59.513416 0 0 1 41.958025 101.855399A97.738521 97.738521 0 0 1 388.109705 298.746898z m-3.818244-42.960581a53.327434 53.327434 0 0 0 37.329204-13.523837A17.064779 17.064779 0 0 0 409.611327 213.423003a16.574166 16.574166 0 0 0-11.753367 4.991448 53.327434 53.327434 0 0 0-13.566499 37.393197zM512 362.739819a21.330974 21.330974 0 0 1-19.091221-11.796029l-21.330974-42.661947A21.330974 21.330974 0 0 1 490.669026 277.415924h42.661948a21.330974 21.330974 0 0 1 19.091221 30.865919l-21.330974 42.661947A21.330974 21.330974 0 0 1 512 362.739819zM661.316815 896.014158h85.323895v42.661948h-85.323895z" p-id="1140" fill="#1890ff"></path></svg>